<svg width="1125" height="2748" viewBox="0 0 1125 2748" fill="none" xmlns="http://www.w3.org/2000/svg">
<path d="M958.327 940.656C814.934 1423.36 642.876 1250.18 479.038 1230.84C314.648 1212.91 306.214 1037.33 117.586 897.779C-71.0423 758.23 252.419 515.215 606.14 588.516C880.524 652.61 1011.31 700.914 958.327 940.656Z" fill="#FCDE83"/>
<path d="M708.803 63.838C889.715 189.946 1027.51 591.675 784.634 477.149C541.761 362.624 523.32 598.68 321.958 477.077C114.401 506.74 -33.1674 473.079 308.501 142.651C467.117 17.0081 527.89 -62.27 708.803 63.838Z" fill="#99CCB3"/>
<path d="M596.644 1889.33C372.511 1796.6 148.592 1809.57 210.297 1630.25C272.001 1450.92 304.31 1258.97 437.657 1271.73C632.477 1303.62 463.384 1549.27 824.004 1530.81C1184.62 1512.36 820.777 1982.06 596.644 1889.33Z" fill="#A7D3E0"/>
<path d="M443.832 2434.35C284.533 2334.45 55.3789 2076.98 356.468 2108.3C657.557 2139.61 639.914 1836.36 882.02 1967.48C1124.13 2098.59 813.428 2223.32 969.384 2293.52C1125.34 2363.73 1072.68 2862.19 443.832 2434.35Z" fill="#EFAF9A"/>
</svg>
