<svg width="1029" height="2581" viewBox="0 0 1029 2581" fill="none" xmlns="http://www.w3.org/2000/svg">
<path d="M300.843 1871C690.427 1772.77 641.691 1961.36 695.153 2081.64C749.81 2201.73 632.777 2279.03 613.863 2465.29C594.948 2651.54 296.471 2528.6 202.69 2256.06C134.907 2041.7 114.78 1932.3 300.843 1871Z" fill="#FCDE83"/>
<path d="M187.349 726.721C236.673 577.658 482.883 402.048 454.052 591.04C425.22 780.032 590.087 744.678 547.993 906.781C610.403 1042.39 617.405 1149.93 322.462 983.878C204.482 901.155 138.025 875.784 187.349 726.721Z" fill="#99CCB3"/>
<path d="M497.318 165.318C696.923 245.623 896.338 234.39 841.386 389.695C786.435 544.999 757.662 711.234 638.907 700.183C465.407 672.566 615.995 459.821 294.84 475.806C-26.3161 491.791 297.713 85.0117 497.318 165.318Z" fill="#A7D3E0"/>
<path d="M250.211 1311.33C257.911 1161.24 348.404 900.953 443.785 1123.22C539.165 1345.49 743.972 1214.91 746.721 1434.95C749.47 1654.99 541.425 1486.88 553.147 1623.06C564.868 1759.25 196.419 1916.92 250.211 1311.33Z" fill="#EFAF9A"/>
</svg>
